<svg width="20" height="20" viewBox="0 0 20 20" fill="none" xmlns="http://www.w3.org/2000/svg">
<path d="M0 0H20V20H0V0Z" fill="#FD2016"/>
<path d="M13.8574 7.83141L13.1525 7.14149C13.0574 7.04846 12.9386 7.00195 12.804 7.00195C12.6693 7.00195 12.5505 7.04846 12.4554 7.14149L9.06535 10.4593L7.55248 8.97095C7.45743 8.87792 7.33861 8.83141 7.20396 8.83141C7.06931 8.83141 6.9505 8.87792 6.85545 8.97095L6.1505 9.66087C6.04752 9.75389 6 9.87017 6 10.002C6 10.1337 6.04752 10.25 6.14257 10.343L8.01188 12.1725L8.71683 12.8624C8.81188 12.9554 8.93069 13.002 9.06535 13.002C9.2 13.002 9.31881 12.9554 9.41386 12.8624L10.1188 12.1725L13.8574 8.51358C13.9525 8.42056 14 8.30428 14 8.1725C14 8.04071 13.9525 7.92443 13.8574 7.83141Z" fill="white"/>
</svg>
